<mxfile host="app.diagrams.net" modified="2024-03-18T14:55:25.206Z" agent="Mozilla/5.0 (Windows NT 10.0; Win64; x64) AppleWebKit/537.36 (KHTML, like Gecko) Chrome/122.0.0.0 Safari/537.36" etag="TU9EK9VI-yGxkXWQn3fB" version="24.0.7" type="github">
  <diagram name="Page-1" id="QnaIPzlcJbVrJiP90Q0U">
    <mxGraphModel dx="2074" dy="1132" grid="1" gridSize="10" guides="1" tooltips="1" connect="1" arrows="1" fold="1" page="1" pageScale="1" pageWidth="850" pageHeight="1100" math="0" shadow="0">
      <root>
        <mxCell id="0" />
        <mxCell id="1" parent="0" />
        <mxCell id="Ugkx1cf0HtdF3_V1G3ao-1" value="Windows 10 Client&lt;div&gt;Wazuh Agent&lt;/div&gt;&lt;div&gt;&lt;br&gt;&lt;/div&gt;" style="fontColor=#0066CC;verticalAlign=top;verticalLabelPosition=bottom;labelPosition=center;align=center;html=1;outlineConnect=0;fillColor=#CCCCCC;strokeColor=#6881B3;gradientColor=none;gradientDirection=north;strokeWidth=2;shape=mxgraph.networks.pc;" vertex="1" parent="1">
          <mxGeometry x="375" y="673" width="100" height="70" as="geometry" />
        </mxCell>
        <mxCell id="Ugkx1cf0HtdF3_V1G3ao-2" value="Router" style="sketch=0;points=[[0.5,0,0],[1,0.5,0],[0.5,1,0],[0,0.5,0],[0.145,0.145,0],[0.8555,0.145,0],[0.855,0.8555,0],[0.145,0.855,0]];verticalLabelPosition=bottom;html=1;verticalAlign=top;aspect=fixed;align=center;pointerEvents=1;shape=mxgraph.cisco19.rect;prIcon=router;fillColor=#FAFAFA;strokeColor=#005073;" vertex="1" parent="1">
          <mxGeometry x="400" y="483" width="50" height="50" as="geometry" />
        </mxCell>
        <mxCell id="Ugkx1cf0HtdF3_V1G3ao-19" style="rounded=0;orthogonalLoop=1;jettySize=auto;html=1;shape=link;strokeColor=#66FF66;" edge="1" parent="1">
          <mxGeometry relative="1" as="geometry">
            <mxPoint x="408.0744680851062" y="185" as="sourcePoint" />
            <mxPoint x="410" y="303" as="targetPoint" />
            <Array as="points">
              <mxPoint x="380" y="243" />
            </Array>
          </mxGeometry>
        </mxCell>
        <mxCell id="Ugkx1cf0HtdF3_V1G3ao-20" value="4. Enrich IOCs" style="edgeLabel;html=1;align=center;verticalAlign=middle;resizable=0;points=[];" vertex="1" connectable="0" parent="Ugkx1cf0HtdF3_V1G3ao-19">
          <mxGeometry x="0.1852" relative="1" as="geometry">
            <mxPoint x="5" y="-12" as="offset" />
          </mxGeometry>
        </mxCell>
        <mxCell id="Ugkx1cf0HtdF3_V1G3ao-17" style="rounded=0;orthogonalLoop=1;jettySize=auto;html=1;exitX=0.855;exitY=0.145;exitDx=0;exitDy=0;exitPerimeter=0;shape=link;strokeColor=#3399FF;" edge="1" parent="1">
          <mxGeometry relative="1" as="geometry">
            <mxPoint x="218.9949999999999" y="303.44000000000005" as="sourcePoint" />
            <mxPoint x="391" y="174.80169971671398" as="targetPoint" />
          </mxGeometry>
        </mxCell>
        <mxCell id="Ugkx1cf0HtdF3_V1G3ao-18" value="3. Send Alerts" style="edgeLabel;html=1;align=center;verticalAlign=middle;resizable=0;points=[];" vertex="1" connectable="0" parent="Ugkx1cf0HtdF3_V1G3ao-17">
          <mxGeometry x="0.1478" relative="1" as="geometry">
            <mxPoint as="offset" />
          </mxGeometry>
        </mxCell>
        <mxCell id="Ugkx1cf0HtdF3_V1G3ao-13" style="edgeStyle=orthogonalEdgeStyle;rounded=0;orthogonalLoop=1;jettySize=auto;html=1;exitX=0;exitY=0.5;exitDx=0;exitDy=0;exitPerimeter=0;shape=link;" edge="1" parent="1">
          <mxGeometry relative="1" as="geometry">
            <mxPoint x="391" y="329" as="sourcePoint" />
            <mxPoint x="229" y="329" as="targetPoint" />
          </mxGeometry>
        </mxCell>
        <mxCell id="Ugkx1cf0HtdF3_V1G3ao-14" value="2. Receive Events" style="edgeLabel;html=1;align=center;verticalAlign=middle;resizable=0;points=[];" vertex="1" connectable="0" parent="Ugkx1cf0HtdF3_V1G3ao-13">
          <mxGeometry x="0.0123" relative="1" as="geometry">
            <mxPoint as="offset" />
          </mxGeometry>
        </mxCell>
        <mxCell id="Ugkx1cf0HtdF3_V1G3ao-26" style="rounded=0;orthogonalLoop=1;jettySize=auto;html=1;exitX=0.855;exitY=0.855;exitDx=0;exitDy=0;exitPerimeter=0;strokeColor=#FF9933;align=center;verticalAlign=middle;fontFamily=Helvetica;fontSize=11;fontColor=default;labelBackgroundColor=default;endArrow=classic;shape=link;" edge="1" parent="1" target="Ugkx1cf0HtdF3_V1G3ao-7">
          <mxGeometry relative="1" as="geometry">
            <mxPoint x="449.9949999999999" y="354.55999999999995" as="sourcePoint" />
          </mxGeometry>
        </mxCell>
        <mxCell id="Ugkx1cf0HtdF3_V1G3ao-27" value="7. Send &amp;amp; Receive" style="edgeLabel;html=1;align=center;verticalAlign=middle;resizable=0;points=[];" vertex="1" connectable="0" parent="Ugkx1cf0HtdF3_V1G3ao-26">
          <mxGeometry x="-0.0004" y="1" relative="1" as="geometry">
            <mxPoint as="offset" />
          </mxGeometry>
        </mxCell>
        <mxCell id="Ugkx1cf0HtdF3_V1G3ao-32" style="rounded=0;orthogonalLoop=1;jettySize=auto;html=1;entryX=1;entryY=1;entryDx=0;entryDy=0;strokeColor=#FF0000;shape=link;" edge="1" parent="1">
          <mxGeometry relative="1" as="geometry">
            <mxPoint x="660.0040183446289" y="532.74" as="sourcePoint" />
            <mxPoint x="442.4313004744508" y="362.2513004744508" as="targetPoint" />
            <Array as="points">
              <mxPoint x="512.43" y="472.74" />
            </Array>
          </mxGeometry>
        </mxCell>
        <mxCell id="Ugkx1cf0HtdF3_V1G3ao-33" value="8. Response Action" style="edgeLabel;html=1;align=center;verticalAlign=middle;resizable=0;points=[];" vertex="1" connectable="0" parent="Ugkx1cf0HtdF3_V1G3ao-32">
          <mxGeometry x="-0.1105" y="3" relative="1" as="geometry">
            <mxPoint as="offset" />
          </mxGeometry>
        </mxCell>
        <mxCell id="Ugkx1cf0HtdF3_V1G3ao-7" value="&lt;div&gt;SOC Analyst&lt;/div&gt;" style="fontColor=#0066CC;verticalAlign=top;verticalLabelPosition=bottom;labelPosition=center;align=center;html=1;outlineConnect=0;fillColor=#CCCCCC;strokeColor=#6881B3;gradientColor=none;gradientDirection=north;strokeWidth=2;shape=mxgraph.networks.pc;" vertex="1" parent="1">
          <mxGeometry x="660" y="523" width="100" height="70" as="geometry" />
        </mxCell>
        <mxCell id="Ugkx1cf0HtdF3_V1G3ao-11" style="edgeStyle=orthogonalEdgeStyle;rounded=0;orthogonalLoop=1;jettySize=auto;html=1;entryX=0.5;entryY=1;entryDx=0;entryDy=0;entryPerimeter=0;shape=link;strokeColor=#999999;" edge="1" parent="1" source="Ugkx1cf0HtdF3_V1G3ao-1" target="Ugkx1cf0HtdF3_V1G3ao-2">
          <mxGeometry relative="1" as="geometry" />
        </mxCell>
        <mxCell id="Ugkx1cf0HtdF3_V1G3ao-12" value="1. Send Events" style="edgeLabel;html=1;align=center;verticalAlign=middle;resizable=0;points=[];" vertex="1" connectable="0" parent="Ugkx1cf0HtdF3_V1G3ao-11">
          <mxGeometry x="0.2143" y="-1" relative="1" as="geometry">
            <mxPoint y="25" as="offset" />
          </mxGeometry>
        </mxCell>
        <mxCell id="Ugkx1cf0HtdF3_V1G3ao-16" style="rounded=0;orthogonalLoop=1;jettySize=auto;html=1;exitX=0.5;exitY=0;exitDx=0;exitDy=0;exitPerimeter=0;entryX=0.5;entryY=1;entryDx=0;entryDy=0;entryPerimeter=0;shape=link;" edge="1" parent="1" source="Ugkx1cf0HtdF3_V1G3ao-2">
          <mxGeometry relative="1" as="geometry">
            <mxPoint x="425.5" y="365" as="targetPoint" />
          </mxGeometry>
        </mxCell>
        <mxCell id="Ugkx1cf0HtdF3_V1G3ao-22" style="rounded=0;orthogonalLoop=1;jettySize=auto;html=1;entryX=0.5;entryY=0;entryDx=0;entryDy=0;entryPerimeter=0;shape=link;strokeColor=#3399FF;align=center;verticalAlign=middle;fontFamily=Helvetica;fontSize=11;fontColor=default;labelBackgroundColor=default;endArrow=classic;" edge="1" parent="1">
          <mxGeometry relative="1" as="geometry">
            <mxPoint x="460" y="170.69432314410483" as="sourcePoint" />
            <mxPoint x="654.5" y="293" as="targetPoint" />
          </mxGeometry>
        </mxCell>
        <mxCell id="Ugkx1cf0HtdF3_V1G3ao-23" value="5. Send Alerts" style="edgeLabel;html=1;align=center;verticalAlign=middle;resizable=0;points=[];rounded=0;strokeColor=#3399FF;fontFamily=Helvetica;fontSize=11;fontColor=default;labelBackgroundColor=default;" vertex="1" connectable="0" parent="Ugkx1cf0HtdF3_V1G3ao-22">
          <mxGeometry x="-0.003" y="2" relative="1" as="geometry">
            <mxPoint as="offset" />
          </mxGeometry>
        </mxCell>
        <mxCell id="Ugkx1cf0HtdF3_V1G3ao-24" style="rounded=0;orthogonalLoop=1;jettySize=auto;html=1;exitX=0.855;exitY=0.855;exitDx=0;exitDy=0;exitPerimeter=0;entryX=0.855;entryY=0.145;entryDx=0;entryDy=0;entryPerimeter=0;shape=link;strokeColor=#FF9933;" edge="1" parent="1">
          <mxGeometry relative="1" as="geometry">
            <mxPoint x="449.9949999999999" y="174.55999999999995" as="sourcePoint" />
            <mxPoint x="449.9949999999999" y="303.44000000000005" as="targetPoint" />
            <Array as="points">
              <mxPoint x="480" y="233" />
            </Array>
          </mxGeometry>
        </mxCell>
        <mxCell id="Ugkx1cf0HtdF3_V1G3ao-25" value="6. Send Email" style="edgeLabel;html=1;align=center;verticalAlign=middle;resizable=0;points=[];" vertex="1" connectable="0" parent="Ugkx1cf0HtdF3_V1G3ao-24">
          <mxGeometry relative="1" as="geometry">
            <mxPoint x="-3" y="5" as="offset" />
          </mxGeometry>
        </mxCell>
        <mxCell id="Ugkx1cf0HtdF3_V1G3ao-28" value="Internet" style="image;aspect=fixed;perimeter=ellipsePerimeter;html=1;align=center;shadow=0;dashed=0;spacingTop=3;image=img/lib/active_directory/internet_globe.svg;" vertex="1" parent="1">
          <mxGeometry x="391" y="295.75" width="66.5" height="66.5" as="geometry" />
        </mxCell>
        <mxCell id="Ugkx1cf0HtdF3_V1G3ao-29" value="Wazuh Manager" style="image;aspect=fixed;perimeter=ellipsePerimeter;html=1;align=center;shadow=0;dashed=0;spacingTop=3;image=img/lib/active_directory/internet_cloud.svg;" vertex="1" parent="1">
          <mxGeometry x="150" y="295.75" width="82.14" height="51.75" as="geometry" />
        </mxCell>
        <mxCell id="Ugkx1cf0HtdF3_V1G3ao-34" style="edgeStyle=orthogonalEdgeStyle;rounded=0;orthogonalLoop=1;jettySize=auto;html=1;entryX=0.25;entryY=0;entryDx=0;entryDy=0;strokeColor=#FF0000;align=center;verticalAlign=middle;fontFamily=Helvetica;fontSize=11;fontColor=default;labelBackgroundColor=default;endArrow=classic;shape=link;" edge="1" parent="1" source="Ugkx1cf0HtdF3_V1G3ao-30" target="Ugkx1cf0HtdF3_V1G3ao-29">
          <mxGeometry relative="1" as="geometry" />
        </mxCell>
        <mxCell id="Ugkx1cf0HtdF3_V1G3ao-35" value="9. Send Responsive Action" style="edgeLabel;html=1;align=center;verticalAlign=middle;resizable=0;points=[];" vertex="1" connectable="0" parent="Ugkx1cf0HtdF3_V1G3ao-34">
          <mxGeometry x="0.5982" y="-1" relative="1" as="geometry">
            <mxPoint y="1" as="offset" />
          </mxGeometry>
        </mxCell>
        <mxCell id="Ugkx1cf0HtdF3_V1G3ao-30" value="Shuffle" style="image;aspect=fixed;perimeter=ellipsePerimeter;html=1;align=center;shadow=0;dashed=0;spacingTop=3;image=img/lib/active_directory/internet_cloud.svg;" vertex="1" parent="1">
          <mxGeometry x="384" y="133" width="82.14" height="51.75" as="geometry" />
        </mxCell>
        <mxCell id="Ugkx1cf0HtdF3_V1G3ao-31" value="TheHive" style="image;aspect=fixed;perimeter=ellipsePerimeter;html=1;align=center;shadow=0;dashed=0;spacingTop=3;image=img/lib/active_directory/internet_cloud.svg;" vertex="1" parent="1">
          <mxGeometry x="620" y="295.75" width="82.14" height="51.75" as="geometry" />
        </mxCell>
        <mxCell id="Ugkx1cf0HtdF3_V1G3ao-37" style="rounded=0;orthogonalLoop=1;jettySize=auto;html=1;exitX=1;exitY=0.75;exitDx=0;exitDy=0;entryX=0;entryY=0;entryDx=0;entryDy=0;entryPerimeter=0;shape=link;strokeColor=#FF0000;align=center;verticalAlign=middle;fontFamily=Helvetica;fontSize=11;fontColor=default;labelBackgroundColor=default;endArrow=classic;" edge="1" parent="1" target="Ugkx1cf0HtdF3_V1G3ao-1">
          <mxGeometry relative="1" as="geometry">
            <mxPoint x="219.99695642824798" y="337.76654822290175" as="sourcePoint" />
            <mxPoint x="366.68" y="678.24" as="targetPoint" />
          </mxGeometry>
        </mxCell>
        <mxCell id="Ugkx1cf0HtdF3_V1G3ao-38" value="10. Perform Responsive&lt;div&gt;Action&lt;/div&gt;" style="edgeLabel;html=1;align=center;verticalAlign=middle;resizable=0;points=[];" vertex="1" connectable="0" parent="Ugkx1cf0HtdF3_V1G3ao-37">
          <mxGeometry x="0.0083" y="3" relative="1" as="geometry">
            <mxPoint as="offset" />
          </mxGeometry>
        </mxCell>
        <mxCell id="Ugkx1cf0HtdF3_V1G3ao-39" value="Text" style="text;html=1;align=center;verticalAlign=middle;resizable=0;points=[];autosize=1;strokeColor=none;fillColor=none;" vertex="1" parent="1">
          <mxGeometry x="75" y="848" width="50" height="30" as="geometry" />
        </mxCell>
      </root>
    </mxGraphModel>
  </diagram>
</mxfile>
